# xmcd
#
# Track frame offsets: 
#        150
#        10035
#        23775
#        38282
#        56287
#        70890
#        87876
#        102411
#        114484
#        138427
#        151303
#        165900
#        178744
#        190157
#        202174
#        224675
#
# Disc length: 3176 seconds
#
# Revision: 1
# Processed by: cddbd v1.5.2PL0 Copyright (c) Steve Scherf et al.
# Submitted via: ExactAudioCopy v1.3
#
DISCID=d00c6610
DTITLE=Pearl Jango - Under Paris Skies (2002)
DYEAR=2002
DGENRE=Jazz
TTITLE0=Seaside Adventure
TTITLE1=Limehouse Blues
TTITLE2=Under Paris Skies
TTITLE3=I've Found A New Baby
TTITLE4=Laura
TTITLE5=Radio City Rhythm
TTITLE6=Plum Curmble
TTITLE7=Cherokee
TTITLE8=Nuages
TTITLE9=Zingarelli
TTITLE10=My Blue Heaven
TTITLE11=Swing 39
TTITLE12=Blues For Venetia
TTITLE13=I'll See You In My Dreams
TTITLE14=La Rive Gauche
TTITLE15=New Metropolitan Swing
EXTD=YEAR: 2002
EXTT0=
EXTT1=
EXTT2=
EXTT3=
EXTT4=
EXTT5=
EXTT6=
EXTT7=
EXTT8=
EXTT9=
EXTT10=
EXTT11=
EXTT12=
EXTT13=
EXTT14=
EXTT15=
PLAYORDER=
